# xmcd
#
# Track frame offsets:
#	150
#	17015
#	34542
#	50520
#	66447
#	85182
#	101780
#	120832
#	136707
#	154397
#	173655
#	189395
#	210492
#	228002
#
# Disc length: 3299 seconds
#
# Revision: 4
# Processed by: cddbd v1.5.2PL0 Copyright (c) Steve Scherf et al.
# Submitted via: EasyCDDAExtractor 15.3.0.1
#
DISCID=aa0ce10e
DTITLE=Paulina Rubio - Top Hits
DYEAR=2000
DGENRE=Latin
TTITLE0=Mio
TTITLE1=Amor De Mujer
TTITLE2=Sabor A Miel
TTITLE3=Nieva, Nieva
TTITLE4=El Me Engaño
TTITLE5=Asunto De Dos
TTITLE6=Te Daria Mi Vida
TTITLE7=Nada De Ti
TTITLE8=Hoy Te Deje De Amar
TTITLE9=Solo Por Ti
TTITLE10=Enamorada
TTITLE11=Siempre Tuya Desde La Raiz
TTITLE12=Besame En La Boca
TTITLE13=Sera Entre Tu Y Yo
EXTD=
EXTT0=
EXTT1=
EXTT2=
EXTT3=
EXTT4=
EXTT5=
EXTT6=
EXTT7=
EXTT8=
EXTT9=
EXTT10=
EXTT11=
EXTT12=
EXTT13=
PLAYORDER=
